<svg clip-rule="evenodd" fill-rule="evenodd" stroke-linejoin="round" stroke-miterlimit="2" viewBox="0 0 50 50" xmlns="http://www.w3.org/2000/svg"><path d="m44.525 13.656c-.003-.373-.229-.555-.405-.771 0 0-8.636-10.25-10.473-12.32-.095-.106-.1-.108-.305-.312-.137-.136-.33-.253-.484-.253-14.034 0-15.745 0-23.596 0-2.091 0-3.79 1.675-3.79 3.739v41.85c0 2.064 1.699 3.739 3.79 3.739h31.475c2.092 0 3.79-1.675 3.79-3.739z" fill="#333f4c" transform="matrix(1 0 0 1.01362 0 -.000361)"/><path d="m55.122 52.123c0-1.654-1.346-3-3-3s-3 1.346-3 3 1.346 3 3 3 3-1.346 3-3zm2 0c0 2.757-2.243 5-5 5s-5-2.243-5-5 2.243-5 5-5 5 2.243 5 5zm-26.73-14.431c0-1.654-1.346-3-3-3-1.655 0-3 1.346-3 3s1.345 3 3 3c1.654 0 3-1.346 3-3zm2 0c0 2.757-2.244 5-5 5-2.757 0-5-2.243-5-5s2.243-5 5-5c2.756 0 5 2.243 5 5zm7.338-15.685c0 1.654 1.346 3 3 3 1.655 0 3-1.346 3-3 0-1.655-1.345-3-3-3-1.654 0-3 1.345-3 3zm-2 0c0-2.757 2.244-5 5-5 2.757 0 5 2.243 5 5s-2.243 5-5 5c-2.756 0-5-2.243-5-5zm28.27 17.993c0-9.273-4.972-17.852-12.988-22.491-1.437.29-2.827.687-4.561 1.314l-.68-1.881c.905-.326 1.715-.59 2.495-.816-3.22-1.389-6.718-2.126-10.266-2.126-1.689 0-3.351.175-4.975.492 1.176.688 2.219 1.374 3.232 2.142l-1.209 1.593c-1.428-1.082-2.908-1.999-4.851-3.017-9.819 3.088-16.891 11.748-18.014 21.918 2.059-.417 4.036-.644 6.231-.698l.049 1.999c-2.3.057-4.276.301-6.436.776-.009.265-.027.533-.027.795 0 8.658 4.283 16.636 11.327 21.447-1.253-3.731-1.877-7.257-1.877-10.701 0-1.964.338-3.577.695-5.284.083-.395.167-.797.249-1.214l1.963.387c-.084.424-.17.835-.254 1.238-.35 1.672-.653 3.116-.653 4.873 0 3.908.858 7.949 2.604 12.337 3.719 1.931 7.735 2.917 11.946 2.917 2.756 0 5.446-.44 8.012-1.286 1.007-1.987 1.754-3.862 2.378-6.015l1.921.557c-.456 1.57-.979 2.997-1.602 4.421 1.614-.726 3.141-1.624 4.574-2.672-.345-.846-.715-1.687-1.124-2.506l1.789-.895c.348.696.667 1.408.972 2.124 5.785-4.953 9.08-12.068 9.08-19.728zm2 0c0 8.727-3.966 16.799-10.879 22.149-1.712 1.33-3.569 2.434-5.532 3.323-.833.378-1.681.728-2.553 1.022-2.88.999-5.923 1.506-9.036 1.506-4.6 0-9.168-1.146-13.212-3.314-9.121-4.88-14.788-14.339-14.788-24.686 0-.686.018-1.208.059-1.691.681-11.684 8.697-21.797 19.942-25.143 2.561-.773 5.254-1.166 7.999-1.166 4.808 0 9.539 1.238 13.684 3.579 8.829 4.946 14.316 14.305 14.316 24.421zm-30.686-14.537-1.314-1.507c-2.242 1.956-3.986 4.033-6.023 7.17l1.678 1.089c1.928-2.971 3.568-4.927 5.659-6.752zm-3.039 12.964-.65 1.891c4.593 1.577 8.6 4.093 12.609 7.918l1.381-1.447c-4.226-4.031-8.465-6.688-13.34-8.362zm13.371-11.759c3.752 5.722 5.865 12.003 6.279 18.67l-1.996.124c-.393-6.316-2.396-12.27-5.954-17.697z" fill="#fff" stroke="#fff" stroke-width="1.06" transform="matrix(.472256 0 0 .472256 6.10957 5.3189)"/><path d="m76.4 35.3c-.5-.9-1.5-1.5-2.6-1.5h-15.3l9.2-28.1c.3-.9.1-1.9-.4-2.7s-1.5-1.2-2.4-1.2h-24.2c-1.3 0-2.4.8-2.8 2.1l-16.5 50c-.3.9-.1 1.9.4 2.7.6.8 1.5 1.2 2.4 1.2h18l-2.3 35.2c-.1 1.4.8 2.7 2.2 3.1.3.1.6.1.8.1 1.1 0 2.1-.6 2.6-1.6l31-56.4c.5-.9.5-2-.1-2.9z" fill="#fec136" fill-rule="nonzero" transform="matrix(.127097 0 0 .127097 32.46645 35.2803)"/></svg>